<?xml version="1.0" encoding="utf-8"?>
<svg xmlns="http://www.w3.org/2000/svg" width="400px" height="400px">
<circle cx = "200" cy = "200" r = "150" stroke = "grey" stroke-width = "0.5" fill = "white" />
<circle cx = "200" cy = "200" r = "112.5" stroke = "grey" stroke-width = "0.5" fill = "white" />
<circle cx = "200" cy = "200" r = "75" stroke = "grey" stroke-width = "0.5" fill = "white" />
<circle cx = "200" cy = "200" r = "37.5" stroke = "grey" stroke-width = "0.5" fill = "white" />
<circle cx = "200" cy = "200" r = "0" stroke = "grey" stroke-width = "0.5" fill = "white" />
<line x1 = "200" x2 = "200" y1 = "200" y2 = "50" stroke = "grey" stroke-width = "0.5" />
<text x = "200" y = "35" fill = "black" font-family="arial" font-size="10" text-anchor="middle">0</text>
<line x1 = "200" x2 = "226.04722665004" y1 = "200" y2 = "52.2788370481688" stroke = "grey" stroke-width = "0.5" />
<text x = "228.651949315044" y = "37.5067207529857" fill = "black" font-family="arial" font-size="10" text-anchor="middle">10</text>
<line x1 = "200" x2 = "251.30302149885" y1 = "200" y2 = "59.0461068821137" stroke = "grey" stroke-width = "0.5" />
<text x = "256.433323648735" y = "44.9507175703251" fill = "black" font-family="arial" font-size="10" text-anchor="middle">20</text>
<line x1 = "200" x2 = "275" y1 = "200" y2 = "70.0961894323342" stroke = "grey" stroke-width = "0.5" />
<text x = "282.5" y = "57.1058083755676" fill = "black" font-family="arial" font-size="10" text-anchor="middle">30</text>
<line x1 = "200" x2 = "296.418141452981" y1 = "200" y2 = "85.0933335321533" stroke = "grey" stroke-width = "0.5" />
<text x = "306.059955598279" y = "73.6026668853686" fill = "black" font-family="arial" font-size="10" text-anchor="middle">40</text>
<line x1 = "200" x2 = "314.906666467847" y1 = "200" y2 = "103.581858547019" stroke = "grey" stroke-width = "0.5" />
<text x = "326.397333114631" y = "93.940044401721" fill = "black" font-family="arial" font-size="10" text-anchor="middle">50</text>
<line x1 = "200" x2 = "329.903810567666" y1 = "200" y2 = "125" stroke = "grey" stroke-width = "0.5" />
<text x = "342.894191624432" y = "117.5" fill = "black" font-family="arial" font-size="10" text-anchor="middle">60</text>
<line x1 = "200" x2 = "340.953893117886" y1 = "200" y2 = "148.69697850115" stroke = "grey" stroke-width = "0.5" />
<text x = "355.049282429675" y = "143.566676351265" fill = "black" font-family="arial" font-size="10" text-anchor="middle">70</text>
<line x1 = "200" x2 = "347.721162951831" y1 = "200" y2 = "173.95277334996" stroke = "grey" stroke-width = "0.5" />
<text x = "362.493279247014" y = "171.348050684956" fill = "black" font-family="arial" font-size="10" text-anchor="middle">80</text>
<line x1 = "200" x2 = "350" y1 = "200" y2 = "200" stroke = "grey" stroke-width = "0.5" />
<text x = "365" y = "200" fill = "black" font-family="arial" font-size="10" text-anchor="middle">90</text>
<line x1 = "200" x2 = "347.721162951831" y1 = "200" y2 = "226.04722665004" stroke = "grey" stroke-width = "0.5" />
<text x = "362.493279247014" y = "228.651949315044" fill = "black" font-family="arial" font-size="10" text-anchor="middle">100</text>
<line x1 = "200" x2 = "340.953893117886" y1 = "200" y2 = "251.30302149885" stroke = "grey" stroke-width = "0.5" />
<text x = "355.049282429675" y = "256.433323648735" fill = "black" font-family="arial" font-size="10" text-anchor="middle">110</text>
<line x1 = "200" x2 = "329.903810567666" y1 = "200" y2 = "275" stroke = "grey" stroke-width = "0.5" />
<text x = "342.894191624432" y = "282.5" fill = "black" font-family="arial" font-size="10" text-anchor="middle">120</text>
<line x1 = "200" x2 = "314.906666467847" y1 = "200" y2 = "296.418141452981" stroke = "grey" stroke-width = "0.5" />
<text x = "326.397333114631" y = "306.059955598279" fill = "black" font-family="arial" font-size="10" text-anchor="middle">130</text>
<line x1 = "200" x2 = "296.418141452981" y1 = "200" y2 = "314.906666467847" stroke = "grey" stroke-width = "0.5" />
<text x = "306.059955598279" y = "326.397333114631" fill = "black" font-family="arial" font-size="10" text-anchor="middle">140</text>
<line x1 = "200" x2 = "275" y1 = "200" y2 = "329.903810567666" stroke = "grey" stroke-width = "0.5" />
<text x = "282.5" y = "342.894191624432" fill = "black" font-family="arial" font-size="10" text-anchor="middle">150</text>
<line x1 = "200" x2 = "251.30302149885" y1 = "200" y2 = "340.953893117886" stroke = "grey" stroke-width = "0.5" />
<text x = "256.433323648735" y = "355.049282429675" fill = "black" font-family="arial" font-size="10" text-anchor="middle">160</text>
<line x1 = "200" x2 = "226.04722665004" y1 = "200" y2 = "347.721162951831" stroke = "grey" stroke-width = "0.5" />
<text x = "228.651949315044" y = "362.493279247014" fill = "black" font-family="arial" font-size="10" text-anchor="middle">170</text>
<line x1 = "200" x2 = "200" y1 = "200" y2 = "350" stroke = "grey" stroke-width = "0.5" />
<text x = "200" y = "365" fill = "black" font-family="arial" font-size="10" text-anchor="middle">180</text>
<line x1 = "200" x2 = "173.95277334996" y1 = "200" y2 = "347.721162951831" stroke = "grey" stroke-width = "0.5" />
<text x = "171.348050684956" y = "362.493279247014" fill = "black" font-family="arial" font-size="10" text-anchor="middle">190</text>
<line x1 = "200" x2 = "148.69697850115" y1 = "200" y2 = "340.953893117886" stroke = "grey" stroke-width = "0.5" />
<text x = "143.566676351265" y = "355.049282429675" fill = "black" font-family="arial" font-size="10" text-anchor="middle">200</text>
<line x1 = "200" x2 = "125" y1 = "200" y2 = "329.903810567666" stroke = "grey" stroke-width = "0.5" />
<text x = "117.5" y = "342.894191624432" fill = "black" font-family="arial" font-size="10" text-anchor="middle">210</text>
<line x1 = "200" x2 = "103.581858547019" y1 = "200" y2 = "314.906666467847" stroke = "grey" stroke-width = "0.5" />
<text x = "93.940044401721" y = "326.397333114631" fill = "black" font-family="arial" font-size="10" text-anchor="middle">220</text>
<line x1 = "200" x2 = "85.0933335321533" y1 = "200" y2 = "296.418141452981" stroke = "grey" stroke-width = "0.5" />
<text x = "73.6026668853686" y = "306.059955598279" fill = "black" font-family="arial" font-size="10" text-anchor="middle">230</text>
<line x1 = "200" x2 = "70.0961894323343" y1 = "200" y2 = "275" stroke = "grey" stroke-width = "0.5" />
<text x = "57.1058083755677" y = "282.5" fill = "black" font-family="arial" font-size="10" text-anchor="middle">240</text>
<line x1 = "200" x2 = "59.0461068821138" y1 = "200" y2 = "251.30302149885" stroke = "grey" stroke-width = "0.5" />
<text x = "44.9507175703251" y = "256.433323648735" fill = "black" font-family="arial" font-size="10" text-anchor="middle">250</text>
<line x1 = "200" x2 = "52.2788370481688" y1 = "200" y2 = "226.04722665004" stroke = "grey" stroke-width = "0.5" />
<text x = "37.5067207529857" y = "228.651949315044" fill = "black" font-family="arial" font-size="10" text-anchor="middle">260</text>
<line x1 = "200" x2 = "50" y1 = "200" y2 = "200" stroke = "grey" stroke-width = "0.5" />
<text x = "35" y = "200" fill = "black" font-family="arial" font-size="10" text-anchor="middle">270</text>
<line x1 = "200" x2 = "52.2788370481688" y1 = "200" y2 = "173.95277334996" stroke = "grey" stroke-width = "0.5" />
<text x = "37.5067207529856" y = "171.348050684957" fill = "black" font-family="arial" font-size="10" text-anchor="middle">280</text>
<line x1 = "200" x2 = "59.0461068821137" y1 = "200" y2 = "148.69697850115" stroke = "grey" stroke-width = "0.5" />
<text x = "44.9507175703251" y = "143.566676351265" fill = "black" font-family="arial" font-size="10" text-anchor="middle">290</text>
<line x1 = "200" x2 = "70.0961894323342" y1 = "200" y2 = "125" stroke = "grey" stroke-width = "0.5" />
<text x = "57.1058083755676" y = "117.5" fill = "black" font-family="arial" font-size="10" text-anchor="middle">300</text>
<line x1 = "200" x2 = "85.0933335321533" y1 = "200" y2 = "103.581858547019" stroke = "grey" stroke-width = "0.5" />
<text x = "73.6026668853686" y = "93.940044401721" fill = "black" font-family="arial" font-size="10" text-anchor="middle">310</text>
<line x1 = "200" x2 = "103.581858547019" y1 = "200" y2 = "85.0933335321533" stroke = "grey" stroke-width = "0.5" />
<text x = "93.940044401721" y = "73.6026668853687" fill = "black" font-family="arial" font-size="10" text-anchor="middle">320</text>
<line x1 = "200" x2 = "125" y1 = "200" y2 = "70.0961894323343" stroke = "grey" stroke-width = "0.5" />
<text x = "117.5" y = "57.1058083755677" fill = "black" font-family="arial" font-size="10" text-anchor="middle">330</text>
<line x1 = "200" x2 = "148.69697850115" y1 = "200" y2 = "59.0461068821137" stroke = "grey" stroke-width = "0.5" />
<text x = "143.566676351265" y = "44.9507175703251" fill = "black" font-family="arial" font-size="10" text-anchor="middle">340</text>
<line x1 = "200" x2 = "173.95277334996" y1 = "200" y2 = "52.2788370481688" stroke = "grey" stroke-width = "0.5" />
<text x = "171.348050684956" y = "37.5067207529857" fill = "black" font-family="arial" font-size="10" text-anchor="middle">350</text>
<text x = "190" y = "204" fill = "black" font-family="arial" font-size="10" text-anchor="middle">-20</text>
<text x = "190" y = "166.5" fill = "black" font-family="arial" font-size="10" text-anchor="middle">-10</text>
<text x = "190" y = "129" fill = "black" font-family="arial" font-size="10" text-anchor="middle">0</text>
<text x = "190" y = "91.5" fill = "black" font-family="arial" font-size="10" text-anchor="middle">10</text>
<text x = "190" y = "54" fill = "black" font-family="arial" font-size="10" text-anchor="middle">20</text>
<path d = "M 200 63.0875 200 63.0875 202.388798131103 63.1458467254689 204.771633686649 63.3582891758142 207.145820625521 63.6496198984474 209.506063459481 64.0569590508425 211.844465439407 64.6171405293318 214.158380349604 65.2920092723674 216.44322115894 66.0807104897946 218.694426786461 66.9822416662886 220.907466252627 67.9954532794598 223.077842811935 69.1190496246776 225.193942727031 70.3884007655291 227.257222666208 71.7648495437981 229.25488461742 73.2831730746802 231.189780390187 74.9046234898671 233.057662535719 76.6271238372287 234.85434364306 78.4484585485996 236.564736321887 80.4021364573729 238.182912367454 82.4850792052801 239.70303643605 84.6940097056633 241.132197486703 86.9902161927347 242.466602021118 89.3707194600816 243.688493957131 91.8671829611484 244.777787324871 94.5101437943503 245.742619721912 97.260393969869 246.577815172097 100.113553021223 247.278328181202 103.065062106635 247.839248910055 106.110187513651 248.23820307625 109.277134833745 248.468841784128 112.559894778739 248.50625 115.984710515362 248.362075234054 119.511990464072 248.030557311937 123.135040684622 247.46529190156 126.909860003556 246.699597351101 130.764999721997 245.663854038998 134.785257874043 244.348397285467 138.95966777441 242.766480082742 143.246964067264 240.91070503539 147.636685422833 238.821201622887 152.059808502623 236.518371075317 156.479100075303 234.02486139102 160.858874395696 231.666605945933 164.830671134282 229.845953232235 167.994133632891 229.071452803709 169.895629355827 229.539385784068 170.460614215932 230.589925009401 170.459652796231 232.334975532838 169.847147505737 234.500498522788 168.93561159979 236.848695254377 167.967917909538 239.24062659877 167.073204693807 241.441308394693 166.441490147267 243.35044158279 166.130923088647 245.192786924801 165.944792377383 246.963436523466 165.879066104422 248.626913229105 165.951068797111 250.239676896836 166.112910049673 251.515339636048 166.545547274202 252.631984967708 167.111885663527 253.647958432693 167.765054486567 254.592076391062 168.48125 255.461822178977 169.257009956129 256.221687975292 170.106398239608 256.701427683037 171.109179572825 257.095891791155 172.152472900224 257.437256003448 173.216567662183 257.793169514115 174.268823117417 258.095362563517 175.339981653221 258.273505259523 176.45597560381 258.325437145413 177.610962352157 258.284434804246 178.786200610225 258.220306292528 179.953140889301 258.062000319819 181.134512493409 257.880345354663 182.304202571656 257.387323247518 183.544449857725 256.796438585797 184.781440147972 256.070964282174 186.019938458034 255.319860428182 187.228403889627 254.507275050891 188.41412102918 253.670466255001 189.567518177787 252.662594592328 190.714163699261 251.594369691838 191.828254632461 250.540806558398 192.896952859751 249.466018832424 193.926336598046 248.445647828127 194.908157233074 247.331700593084 195.859012772702 246.124867773889 196.774635045256 244.825983241296 197.650769764145 243.510978131344 198.480563162315 242.143580350842 199.264381068669 240.725 200 239.294014419646 200.685879572985 237.776973261322 201.319200975355 236.175354896484 201.895870014901 234.490777037733 202.411830079703 232.687638531135 202.859797808908 230.879904851185 203.245608784461 229.069195416195 203.569248394978 227.145723434378 203.815082630068 225.149014372404 203.983212566087 223.044501420486 204.063367357406 220.871847988056 204.057076264194 218.560350723924 203.945124333267 216.223261578674 203.745435054825 213.826714099433 203.447387012295 211.446221041525 203.067005684465 209.119970340215 202.615109413314 206.921255671282 202.116040212931 204.921717471827 201.59916294589 203.013840459723 201.037748492332 201.233346564781 200.448901438115 200 200 200 200 200 200 200 200 200 200 200 200 200 200 200 200 200 200 200 200 200.032143773776 200.019313927809 200.699639679329 200.437183392992 201.163655413024 200.755686661083 201.305734176774 200.880728822966 200.921546049825 200.645273490895 200.33371951018 200.242461416571 200 200 200 200 200 200 200 200 200 200 200 200 200 200 200 200 200 200 200 200 200 200 200 200 200 200 200 200 200 200 200 200 200 200 201.190265135892 201.638259413609 202.559584847217 203.65546599764 203.669703429027 205.440559069892 204.452424111248 206.856131892954 205.027609019413 208.045856312284 205.407899786556 209.000256657372 205.625 209.742785792575 205.690452917641 210.265848812549 205.580843202617 210.49603951011 205.260614915732 210.324538099033 204.80016405734 209.841794806976 204.231465345679 209.074406717704 203.553861418875 207.982103436152 202.783959290486 206.558597080849 201.896445879168 204.693868263744 200.900399473233 202.345620821574 200 200 200 200 200 200 200 200 200 200 200 200 200 200 200 200 200 200 200 200 200 200 200 200 200 200 200 200 200 200 200 200 200.217117024529 203.104918106434 200.302240147303 205.767085563208 200.277450998785 207.945157074802 200.170160962764 209.748515027775 200 211.25 199.782063074614 212.485598093265 199.528856794516 213.491776164758 199.252250025179 214.267919477806 198.9641163649 214.813826146358 198.67632215702 215.129706977268 198.404634329377 215.178890428058 198.162819648167 214.962633235993 197.933279450743 214.705480820812 197.718012241226 214.407903668432 197.499466241596 214.181231643376 197.259505803904 214.098620422267 197.006071652224 214.085325450567 196.701655165683 214.286701074914 196.30766706841 214.809138522287 195.826542897722 215.575553948911 195.255592013 216.545716941338 194.605742047866 217.643822747518 193.916227923243 218.723925164561 193.138651144815 219.926803980756 192.304546775172 221.143083967683 191.426046807129 222.335911703946 190.51777060416 223.469341318722 189.62608853861 224.439403859162 188.728310778762 225.316628494921 187.796897692237 226.169637350683 186.865304514332 226.930116612239 185.920619626827 227.632339831392 184.982778385386 228.243286126575 184.183086139463 228.534467945423 183.3875 228.773694040738 182.598151043977 228.961540172473 181.797273273589 229.130452102973 180.985289690038 229.280086203395 180.204571217136 229.347930068448 179.523321222268 229.243727981117 178.795647023549 229.185288072076 178.018706279371 229.170162004477 177.212829644509 229.166248017869 176.329686791638 229.2304024753 175.48568753558 229.21501994945 174.635117791654 229.178959145363 173.728259567835 229.177723710306 172.711540617999 229.263289986037 171.657938485273 229.349063853817 170.540163728815 229.459836271185 169.51797596065 229.4361484482 168.460371617673 229.411179277695 167.338784920269 229.408290149472 166.179576936267 229.399645236637 164.982193393924 229.383428607796 163.891855765805 229.239798669153 162.973344714904 228.928393571864 162.024881497251 228.61630435088 161.076169858135 228.279817950922 160.127774244233 227.918833039387 159.180262521321 227.533260584641 158.422906594106 227.00048016087 157.76720481141 226.389979358814 157.088062008601 225.784093625185 156.44974750719 225.14375 155.755175565086 224.525306664212 155.135225437856 223.855023784058 154.658905500364 223.102441555496 154.195208415479 222.340489568238 153.710329777103 221.585227718406 153.237891886919 220.819831917443 152.743582085885 220.059159308818 152.296390682539 219.273509231249 151.897268524732 218.464908600322 151.441383820888 217.673890906354 150.998499819565 216.872569604742 150.497508326837 216.084334557216 149.973307453684 215.294694803308 149.641902904031 214.439951977863 149.32511633831 213.578294153691 148.986702191039 212.719043661153 148.626338334198 211.86054434028 148.243765076173 211.001127340395 147.912407578308 210.124802317168 147.74363860579 209.214206427452 147.553749114398 208.306670093636 147.379630497245 207.395310652265 147.1469174251 206.489542536324 146.929825358411 205.57790012112 146.691131218365 204.663921683784 146.430810501047 203.74592264006 146.223799553466 202.818291243683 146.070372496982 201.883264090809 146.008224461555 200.942429947613 146.1125 200 145.933235884418 199.056261121904 145.770555248876 198.106266060181 145.624621832613 197.150307182572 145.458185552044 196.18606479804 145.271553773585 195.211881382801 145.065096804595 194.226109010253 144.839247622534 193.227111240259 144.631636606487 192.21848399257 144.368454215979 191.188828756609 144.12447011347 190.147636519623 143.900006465966 189.095265914231 143.732059267788 188.039879985708 143.583973248935 186.97533395349 143.492402641002 185.911073605014 143.457116943604 184.849380147311 143.441764965229 183.782187077117 143.482388922585 182.720832250886 143.614236790151 181.679154945995 143.765282716231 180.636834013661 144.00606595892 179.619874709582 144.335267070104 178.632311008362 144.751432066002 177.678129614829 145.287492772921 176.775918550419 145.906689589338 175.916106521874 146.641129038217 175.118349840016 147.487957844971 174.388165748848 148.377309504836 173.69692542134 149.407102929183 173.099279452368 150.63865027832 172.638557057347 151.968066042606 172.26875 153.423671798099 172.014118604575 155.0004478977 171.881159041626 156.693148547718 171.876201829412 158.620662159846 172.089284205516 160.834292882433 172.575876636966 163.290853880237 173.329244177229 166.097922598492 174.452952267196 169.326681415858 176.035377072949 173.15932135618 178.264846994116 177.995373371407 181.535925911754 184.292606861614 186.345771459135 192.782205882551 193.50106898574 200 200 200 200 197.056668023311 197.056668023311 185.2819257759 184.758987980325 177.059280163398 175.399089861785 170.993188214343 167.784671815555 166.344171812787 161.283398534572 162.662074722333 155.502393410326 159.668429438594 150.194658195126 157.242310538633 145.272653162013 155.270098404224 140.641415715735 153.711911381968 136.289911692973 152.48636195377 132.143492531211 151.559914736847 128.18462027742 150.900790993395 124.39384829972 150.479044757407 120.749905414182 150.266635891498 117.229782525952 150.25625 113.841297640996 150.440336570318 110.592000437675 150.775906641899 107.422944888742 151.292494259193 104.40613753614 151.949042672582 101.480937600033 152.740712880846 98.6521317146266 153.662527937589 95.9243337380667 154.724030486305 93.3365001061985 155.890073625276 90.8241011247608 157.170550429967 88.4254692782532 158.547158628929 86.1092543607479 160.028369836522 83.9139568807939 161.596913024053 81.8074514374198 163.259840655279 79.828353603795 165.000946745136 77.943796158232 166.825868893984 76.1924572153987 168.710426827878 74.5043765027783 170.669194401739 72.9543231778152 172.688200514952 71.5080857986055 174.76312524901 70.1675346492534 176.896109961415 68.9713284617257 179.069068577617 67.8473000283706 181.289916239681 66.8708365085552 183.543068539927 65.969049047735 185.833780015651 65.2174201302147 188.148997879887 64.5424259269749 190.491320672754 64.0195503989577 192.85221677612 63.6121712908941 195.227057582224 63.3208120198009 197.611201868897 63.1458467254689 Z" stroke = "Blue" stroke-width = "1.5" fill = "none"/>
<path d = "M 200 63.125 200 63.125 202.386180270138 63.2958238797424 204.765090031018 63.5456749558802 207.130119838648 63.9492087588737 209.477288914061 64.4684542215746 211.80524535517 65.065428143473 214.103502906388 65.8141332674357 216.370099552896 66.6762381807795 218.595265952027 67.6878076652669 220.784274111408 68.7732578476785 222.921559452035 70.0053766023885 225.015059293865 71.3086762500112 227.046712079255 72.7552239895411 229.018686010359 74.3062616427047 230.917618257638 75.9962061819276 232.756785395788 77.7500126102898 234.513242415236 79.6380198973232 236.191962398366 81.6214250212258 237.788915699626 83.6976762635564 239.287937039117 85.8995458895524 240.696121803963 88.1883242842367 241.99624408734 90.5960437698592 243.196822803272 93.0841117702673 244.294257553365 95.6492685504977 245.269788374337 98.3223905643785 246.118217812454 101.099162739626 246.850916313083 103.941386301777 247.447682104029 106.878680640763 247.903704587765 109.906234993657 248.214316733498 113.019070124987 248.375 116.212042183856 248.381389161863 119.479846690295 248.209405063616 122.848824452169 247.853347214008 126.312307223895 247.307719633625 129.863421361843 246.567236926251 133.495093404287 245.582746315281 137.260732086223 244.346244518517 141.15054585339 242.850038682666 145.154451548972 241.039556001338 149.320368988487 238.904720076278 153.635160080224 236.386673895386 158.141919906894 233.397981389887 162.90778389836 229.79480335523 168.048985160512 225.424496358799 173.672163307605 219.940411229461 180.059588770539 213.163918346197 187.2877518206 204.004161516365 196.266058978658 200 200 200 200 200 200 200 200 206.176034281393 195.174753187135 212.24907213535 190.769662082405 216.989356881874 187.656509701858 220.857658927708 185.395309989411 224.093904452381 183.748456242881 226.669724060664 182.680478686522 228.812434066915 181.995992997677 230.761591503947 181.516571086665 232.475952641916 181.25 234.077370339419 181.110605171152 235.560714302393 181.092032808798 236.921082846055 181.187768667043 238.187512042136 181.374705900799 239.356415652067 181.64780198391 240.424386500685 182.001903543896 241.42271840536 182.417099217983 242.279583768246 182.917939340234 243.02638790619 183.483717125331 243.660468393265 184.108889090731 244.250269338048 184.763410371405 244.830426536863 185.433711427651 245.364706860997 186.130617257215 245.924277523453 186.831425325843 246.545550754304 187.528157264122 247.119986207278 188.251667944941 247.756312800286 188.974586448971 248.381625701296 189.716167992927 248.995466793832 190.476246018268 249.708171333291 191.235108232262 250.33506705758 192.027708575387 250.986427189332 192.834324964319 251.550365750871 193.670410976895 252.063221222529 194.527934947938 252.412293553352 195.414518484689 252.708790505603 196.314242318545 252.952331080361 197.224885920218 253.14260722674 198.144219262845 253.279384055646 199.070004891973 253.3625 200 253.391866921351 200.931958503751 253.404947318833 201.86494185504 253.364265763448 202.796702661732 253.269920283875 203.724995697936 253.159439576921 204.650848322372 252.958290928361 205.566140669003 252.704200652154 206.471262134813 252.397559187288 207.363996704549 252.038829445106 208.242140876807 251.628546451665 209.103505714189 251.204127956589 209.953074221329 250.619138337974 210.759429999819 249.985184323483 211.53998908784 249.37592377087 212.310800462328 248.755106081941 213.06389130155 248.15921096651 213.809431526432 247.444669705216 214.505291200557 246.39966978875 215.076166613068 245.313977735597 215.602853802359 244.259522439016 216.109148750639 243.236443502152 216.596915663317 242.279583768246 217.082060659766 241.146566949324 217.465681443471 239.842001271438 217.738801846143 238.574725185747 217.987689765339 237.378597400467 218.230760067091 236.286240697571 218.488763101893 235.295830024536 218.767125722366 234.142966817454 218.925755550366 232.963091931545 219.03125 231.79019226479 219.101474603227 230.656938676055 219.15658140203 229.594587666374 219.218949948093 228.601796253149 219.292155169741 227.554226889771 219.293677377758 226.576208265217 219.308745537808 225.666148704145 219.340830306549 224.822338738612 219.393336472758 224.07209615613 219.493199112769 223.211146626505 219.476464573502 222.3582713141 219.435748733844 221.625514421392 219.471700645043 220.9807093152 219.564827954293 220.474209067139 219.771713869189 220.072993750933 220.072993750933 219.485167291375 220.177481399499 219.002179307241 220.377342511364 218.693836315151 220.761608561775 218.525466831119 221.311111771541 218.464074088246 222.004626628593 218.336822894215 222.644090451952 218.0311854586 223.078864946257 217.738497807407 223.539781658644 217.435180046125 223.997466595647 217.121256625079 224.451688522026 216.817726571883 224.933304994593 216.380018978077 225.223017330959 215.877705954587 225.409641081087 215.373886536065 225.586443925958 214.83125 225.688478539756 214.289763556761 225.779415867934 213.714438027883 225.793106556391 213.074926392499 225.660987896625 212.394944175461 225.413401659109 211.711808578489 225.116054548253 211.012394611277 224.734243265673 210.315301792117 224.301328131144 209.566515879359 223.677957685999 208.775535164491 222.86105069385 208.003271353821 221.98880732639 207.252030640533 221.061426271475 206.547297568319 220.150509939004 205.876671264927 219.221725594857 205.209546024941 218.167846053234 204.561685669932 217.024442688345 203.94635092197 215.827949034877 203.36583015062 214.579012094349 202.837994579662 213.351714750016 202.339795305805 212.037203337027 201.881912125465 210.67285402327 201.466573109752 209.259578193079 201.090769178775 207.761225988762 200.767776863452 206.25304075534 200.49389698894 204.699115955615 200.274540589655 203.138013298989 200.104634710616 201.49634607539 200 200 200 200 200 200 200 200 200 200 200 200 200 200 200 200 200 200 200 200 200 200 200 200 200 200 200 200 200 200 200 200 200 200 200 200 200 200 200 200 200 200 200 200 199.853494330494 200.42548335902 199.640878849508 200.986677251825 199.502764470006 201.295342841765 199.466185604382 201.321236992758 199.56042748045 201.035567960134 199.832221134731 200.376837501278 200 200 200 200 200 200 200 200 200 200 200 200 200 200 200 200 200 200 200 200 200 200 200 200 200 200 200 200 200 200 200 200 200 200 200 200 200 200 200 200 200 200 200 200 200 200 200 200 200 200 199.195653334725 200.674926990171 198.513708348714 201.203575247883 197.990572578303 201.56993676208 197.604093469858 201.805445069456 197.330243918563 201.939691332565 197.173925447203 201.978838705411 197.139820374685 201.929215516974 197.326737564674 201.73603692411 197.678468336772 201.450653985838 198.07137357342 201.158835668548 198.506106178472 200.8625 198.917658112415 200.599951905055 199.271568235891 200.387314039298 199.465396085487 200.272394299844 199.528133125693 200.230144852064 199.354255701736 200.30111551149 198.93800340549 200.472831347576 198.170496603763 200.776578117872 196.801215701745 201.292392747285 194.888647164928 201.962064523761 192.776112977708 202.629279851816 190.603909154982 203.235333534918 188.337669468931 203.789320893523 186.014042944041 204.27593618157 183.346141117869 204.775417189529 180.621113110076 205.192557092369 177.950029620378 205.497675077502 175.445874367412 205.668766569465 173.039806754774 205.730565978164 170.735239593467 205.688493174663 168.498462000522 205.554571083121 166.369212002736 205.32659353462 164.350349525303 205.010231634562 162.481755467958 204.606661180715 160.803405798798 204.119728058536 159.2805417155 203.562490984811 157.952675281548 202.940235368315 156.746858275943 202.266801104773 155.702001592379 201.546920191338 154.706899409415 200.790594011609 153.725 200 152.344759229608 199.168174678183 151.242220026806 198.297340804627 150.343146384329 197.39759457582 149.498319955596 196.468578516704 148.671068180823 195.509300354927 147.787600493166 194.512255678448 146.849153579607 193.473896660654 145.857093341555 192.390710705008 144.775875656474 191.253357973438 143.644376333876 190.06298303301 142.501187729553 188.823363095819 141.384505026027 187.540891927746 140.295474280285 186.21612414508 139.162457962495 184.831497145901 138.096228607699 183.412934446992 137.061390458439 181.952644127882 136.166657539467 180.484188709757 135.55403281455 179.060235918668 135.007416909742 177.621258983001 134.562155120021 176.182572269159 134.217589197941 174.748498355164 133.972919756663 173.323327966369 133.896245211447 171.940620835364 134.019179321763 170.62344595385 134.202054661139 169.317914197625 134.410504471318 168.009865563067 134.711496940097 166.733846131585 135.103351924869 165.493840135237 135.715451525254 164.366492911894 136.444560679769 163.30625 137.255353588605 162.299212916584 138.209095593802 161.388757609808 139.269767498652 160.561325876974 140.526917138833 159.884899087267 142.157626272644 159.498333888162 143.935122289816 159.266482016132 145.942358913674 159.264645620396 148.139042278258 159.48177915513 150.573516851337 159.97522312923 153.462800080522 160.950652711543 156.868347490269 162.506226493193 160.789821145749 164.694996381991 165.333834543251 167.673277733038 170.731861873721 171.73608755195 177.195806306734 177.195806306734 185.151677331439 184.624111767761 189.539850152541 188.782862601416 183.965957845126 182.192392119498 175.816024043837 172.179518099038 169.242612876499 163.344773396757 164.223135768817 155.819252091171 160.382184062794 149.291508005407 157.391496360835 143.456605888652 155.078512093548 138.170876204895 153.30370837557 133.310784194322 151.97930941445 128.806398456836 151.023334776274 124.582549177508 150.399556867772 120.622698199759 150.034868757788 116.844057240636 149.9 113.224254540799 150.004007912097 109.80484270125 150.282961500974 106.49584991624 150.764730303246 103.370342451771 151.406558378431 100.368679967737 152.201874597127 97.4965892861549 153.128686093552 94.7253053249108 154.196543462845 92.0938185540377 155.384354724165 89.5724029210956 156.686753698081 87.165135702482 158.098257190814 84.8759077959664 159.61327043959 82.7084206969048 161.214504493514 80.6305189985045 162.908994609612 78.6807878966394 164.680518318999 76.8263294367037 166.534697468244 75.1057906608235 168.465480908583 73.5219520799239 170.449867123754 72.0043123646495 172.49328330481 70.5910724229175 174.598552490497 69.3208812035297 176.759362021502 68.1957923562286 178.957609021276 67.1435720856965 181.201193387819 66.2395406147324 183.47908713464 65.4479623181233 185.782822389808 64.7325907062227 188.116314476357 64.1688529151905 190.470393730631 63.7202811838798 192.842403784324 63.4249282531276 195.223131388845 63.2083805517613 197.610547403655 63.1083524369006 Z" stroke = "Green" stroke-width = "1.5" fill = "none"/>
</svg>
